<svg xmlns="http://www.w3.org/2000/svg" viewBox="0 0 760 420" role="img" aria-labelledby="title desc">
<title id="title">PRAVAC WAGON body card</title>
<desc id="desc">Website card for WAGON rental category.</desc>

<defs>
  <linearGradient id="bg" x1="0" y1="0" x2="1" y2="1">
    <stop offset="0" stop-color="#F6F8F9"/>
    <stop offset="0.52" stop-color="#EEF3F5"/>
    <stop offset="1" stop-color="#FFF1D5"/>
  </linearGradient>
  <linearGradient id="orangeGrad" x1="0" y1="0" x2="1" y2="0">
    <stop offset="0" stop-color="#F8A51B"/>
    <stop offset="1" stop-color="#F28B00"/>
  </linearGradient>
  <linearGradient id="blueGrad" x1="0" y1="0" x2="1" y2="0">
    <stop offset="0" stop-color="#08324C"/>
    <stop offset="1" stop-color="#061F31"/>
  </linearGradient>
  <filter id="softShadow" x="-20%" y="-20%" width="140%" height="140%">
    <feDropShadow dx="0" dy="10" stdDeviation="14" flood-color="#062E45" flood-opacity="0.13"/>
  </filter>
</defs>

<rect x="0" y="0" width="760" height="420" rx="34" fill="url(#bg)"/>
<g opacity=".035" transform="translate(285,42) scale(.50)"><g id="pravac-mark" fill="none" stroke-linecap="round" stroke-linejoin="round">
  <path d="M209 170 C154 113 181 65 226 78 C280 94 316 170 337 252" stroke="#F59B12" stroke-width="18"/>
  <path d="M335 247 C360 130 443 78 552 70 C600 66 652 70 707 81 C657 96 617 100 581 100 C476 102 407 144 370 247" stroke="#F59B12" stroke-width="26"/>
  <path d="M192 126 C185 169 241 191 333 191 L433 191 C500 191 506 250 423 287 C477 272 526 239 505 199 C493 174 462 165 423 165 L336 166 C250 168 209 149 192 126 Z" fill="#062E45"/>
  <path d="M191 280 C176 242 229 219 293 213 C240 229 205 252 191 280 Z" fill="#062E45"/>
  <path d="M294 214 L331 214 L348 248 L313 248 Z" fill="#062E45"/>
</g></g>
<rect x="36" y="32" width="168" height="52" rx="26" fill="#FFFFFF" opacity=".96"/>
<text x="120" y="66" text-anchor="middle" font-family="Manrope, Montserrat, Arial, sans-serif" font-weight="800" font-size="26" letter-spacing="2" fill="#082D44">WAGON</text>
<text x="42" y="382" font-family="Manrope, Montserrat, Arial, sans-serif" font-weight="500" font-size="22" fill="#082D44" opacity=".68">Long roof and trunk</text>
<g transform="translate(0,36)">
  <path d="M70 270 L112 202 C130 171 170 151 232 149 L458 149 C511 149 555 185 583 270 L684 270" fill="none" stroke="url(#blueGrad)" stroke-width="18" stroke-linecap="round" stroke-linejoin="round"/>
  <path d="M90 235 C151 187 212 158 281 154 L456 154 C511 158 548 196 573 238" fill="none" stroke="url(#orangeGrad)" stroke-width="10" stroke-linecap="round" stroke-linejoin="round"/>
  <path d="M194 185 L260 158 L454 158 L518 203 L164 203 Z M280 158 L292 203 M385 158 L411 203" fill="none" stroke="#062E45" stroke-width="7" stroke-linecap="round" stroke-linejoin="round" opacity=".92"/>
  <path d="M583 270 L556 205 L518 203 M70 270 L70 258 C70 237 88 220 111 219" fill="none" stroke="#062E45" stroke-width="6" stroke-linecap="round" stroke-linejoin="round" opacity=".65"/>
  <circle cx="205" cy="276" r="42" fill="#062E45"/>
  <circle cx="205" cy="276" r="17" fill="#F59B12"/>
  <circle cx="555" cy="276" r="42" fill="#062E45"/>
  <circle cx="555" cy="276" r="17" fill="#F59B12"/>
  <path d="M88 270 H672" stroke="#062E45" stroke-width="8" stroke-linecap="round" opacity=".92"/>
</g>
</svg>