<svg xmlns="http://www.w3.org/2000/svg" viewBox="0 0 680 260" role="img" aria-labelledby="title">
  <title id="title">PRAVAC Rent a Car</title>
  <rect width="680" height="260" fill="none"/>
  <g fill="none" stroke-linecap="round" stroke-linejoin="round">
    <path d="M284 110c-54-8-98-36-91-74 4-24 26-34 48-22 32 17 53 63 70 104" stroke="#f59a0b" stroke-width="14"/>
    <path d="M197 59c-20 45 34 80 114 79h81c54 0 93 17 106 47 11 27-8 49-48 61" stroke="#082f49" stroke-width="20"/>
    <path d="M394 132c19-66 79-109 170-126 55-10 111-5 152 3-44 9-73 16-101 29-72 7-142 33-174 94" stroke="#f59a0b" stroke-width="18"/>
    <path d="M264 186c-38 8-63 25-54 56" stroke="#082f49" stroke-width="12"/>
  </g>
  <g font-family="Space Grotesk, Manrope, Arial, sans-serif" font-weight="600" letter-spacing="18">
    <text x="58" y="188" fill="#f59a0b" font-size="70">PRAVAC</text>
    <text x="120" y="238" fill="#082f49" font-size="40" letter-spacing="24">RENT A CAR</text>
  </g>
</svg>
