<svg xmlns="http://www.w3.org/2000/svg" viewBox="0 0 760 360" role="img" aria-labelledby="title desc">
<title id="title">PRAVAC WAGON body icon</title>
<desc id="desc">Vector car body icon for WAGON category.</desc>

<defs>
  <linearGradient id="bg" x1="0" y1="0" x2="1" y2="1">
    <stop offset="0" stop-color="#F6F8F9"/>
    <stop offset="0.52" stop-color="#EEF3F5"/>
    <stop offset="1" stop-color="#FFF1D5"/>
  </linearGradient>
  <linearGradient id="orangeGrad" x1="0" y1="0" x2="1" y2="0">
    <stop offset="0" stop-color="#F8A51B"/>
    <stop offset="1" stop-color="#F28B00"/>
  </linearGradient>
  <linearGradient id="blueGrad" x1="0" y1="0" x2="1" y2="0">
    <stop offset="0" stop-color="#08324C"/>
    <stop offset="1" stop-color="#061F31"/>
  </linearGradient>
  <filter id="softShadow" x="-20%" y="-20%" width="140%" height="140%">
    <feDropShadow dx="0" dy="10" stdDeviation="14" flood-color="#062E45" flood-opacity="0.13"/>
  </filter>
</defs>

<rect width="760" height="360" fill="transparent"/>
<g filter="url(#softShadow)">
  <path d="M70 270 L112 202 C130 171 170 151 232 149 L458 149 C511 149 555 185 583 270 L684 270" fill="none" stroke="url(#blueGrad)" stroke-width="18" stroke-linecap="round" stroke-linejoin="round"/>
  <path d="M90 235 C151 187 212 158 281 154 L456 154 C511 158 548 196 573 238" fill="none" stroke="url(#orangeGrad)" stroke-width="10" stroke-linecap="round" stroke-linejoin="round"/>
  <path d="M194 185 L260 158 L454 158 L518 203 L164 203 Z M280 158 L292 203 M385 158 L411 203" fill="none" stroke="#062E45" stroke-width="7" stroke-linecap="round" stroke-linejoin="round" opacity=".92"/>
  <path d="M583 270 L556 205 L518 203 M70 270 L70 258 C70 237 88 220 111 219" fill="none" stroke="#062E45" stroke-width="6" stroke-linecap="round" stroke-linejoin="round" opacity=".65"/>
  <circle cx="205" cy="276" r="42" fill="#062E45"/>
  <circle cx="205" cy="276" r="17" fill="#F59B12"/>
  <circle cx="555" cy="276" r="42" fill="#062E45"/>
  <circle cx="555" cy="276" r="17" fill="#F59B12"/>
  <path d="M88 270 H672" stroke="#062E45" stroke-width="8" stroke-linecap="round" opacity=".92"/>
</g>
</svg>