<svg xmlns="http://www.w3.org/2000/svg" viewBox="0 0 760 360" role="img" aria-labelledby="title desc">
<title id="title">PRAVAC SEDAN body icon</title>
<desc id="desc">Vector car body icon for SEDAN category.</desc>

<defs>
  <linearGradient id="bg" x1="0" y1="0" x2="1" y2="1">
    <stop offset="0" stop-color="#F6F8F9"/>
    <stop offset="0.52" stop-color="#EEF3F5"/>
    <stop offset="1" stop-color="#FFF1D5"/>
  </linearGradient>
  <linearGradient id="orangeGrad" x1="0" y1="0" x2="1" y2="0">
    <stop offset="0" stop-color="#F8A51B"/>
    <stop offset="1" stop-color="#F28B00"/>
  </linearGradient>
  <linearGradient id="blueGrad" x1="0" y1="0" x2="1" y2="0">
    <stop offset="0" stop-color="#08324C"/>
    <stop offset="1" stop-color="#061F31"/>
  </linearGradient>
  <filter id="softShadow" x="-20%" y="-20%" width="140%" height="140%">
    <feDropShadow dx="0" dy="10" stdDeviation="14" flood-color="#062E45" flood-opacity="0.13"/>
  </filter>
</defs>

<rect width="760" height="360" fill="transparent"/>
<g filter="url(#softShadow)">
  <path d="M72 270 L110 205 C126 173 164 153 226 151 L393 151 C459 151 517 186 548 270 L682 270" fill="none" stroke="url(#blueGrad)" stroke-width="18" stroke-linecap="round" stroke-linejoin="round"/>
  <path d="M90 235 C155 185 208 164 275 158 L385 158 C450 163 505 195 532 238" fill="none" stroke="url(#orangeGrad)" stroke-width="10" stroke-linecap="round" stroke-linejoin="round"/>
  <path d="M195 185 L260 160 L379 160 L429 202 L165 202 Z M278 160 L292 202 M380 160 L405 202" fill="none" stroke="#062E45" stroke-width="7" stroke-linecap="round" stroke-linejoin="round" opacity=".92"/>
  <path d="M76 270 L76 258 C76 236 91 221 112 219 M548 270 C563 251 592 243 656 247" fill="none" stroke="#062E45" stroke-width="6" stroke-linecap="round" stroke-linejoin="round" opacity=".65"/>
  <circle cx="205" cy="276" r="42" fill="#062E45"/>
  <circle cx="205" cy="276" r="17" fill="#F59B12"/>
  <circle cx="555" cy="276" r="42" fill="#062E45"/>
  <circle cx="555" cy="276" r="17" fill="#F59B12"/>
  <path d="M88 270 H672" stroke="#062E45" stroke-width="8" stroke-linecap="round" opacity=".92"/>
</g>
</svg>