<svg xmlns="http://www.w3.org/2000/svg" viewBox="0 0 760 360" role="img" aria-labelledby="title desc">
<title id="title">PRAVAC CABRIO body icon</title>
<desc id="desc">Vector car body icon for CABRIO category.</desc>

<defs>
  <linearGradient id="bg" x1="0" y1="0" x2="1" y2="1">
    <stop offset="0" stop-color="#F6F8F9"/>
    <stop offset="0.52" stop-color="#EEF3F5"/>
    <stop offset="1" stop-color="#FFF1D5"/>
  </linearGradient>
  <linearGradient id="orangeGrad" x1="0" y1="0" x2="1" y2="0">
    <stop offset="0" stop-color="#F8A51B"/>
    <stop offset="1" stop-color="#F28B00"/>
  </linearGradient>
  <linearGradient id="blueGrad" x1="0" y1="0" x2="1" y2="0">
    <stop offset="0" stop-color="#08324C"/>
    <stop offset="1" stop-color="#061F31"/>
  </linearGradient>
  <filter id="softShadow" x="-20%" y="-20%" width="140%" height="140%">
    <feDropShadow dx="0" dy="10" stdDeviation="14" flood-color="#062E45" flood-opacity="0.13"/>
  </filter>
</defs>

<rect width="760" height="360" fill="transparent"/>
<g filter="url(#softShadow)">
  <path d="M75 270 L122 218 C154 185 204 167 277 166 L383 166 C457 166 514 201 560 270 L684 270" fill="none" stroke="url(#blueGrad)" stroke-width="18" stroke-linecap="round" stroke-linejoin="round"/>
  <path d="M98 239 C157 196 215 174 277 170 M393 171 C456 177 512 207 546 244" fill="none" stroke="url(#orangeGrad)" stroke-width="10" stroke-linecap="round" stroke-linejoin="round"/>
  <path d="M214 202 L269 172 L350 172 L368 202 Z M383 202 L405 176 L460 200" fill="none" stroke="#062E45" stroke-width="7" stroke-linecap="round" stroke-linejoin="round" opacity=".92"/>
  <path d="M75 270 L75 258 C75 239 92 225 115 224 M360 170 C378 168 388 171 396 176" fill="none" stroke="#062E45" stroke-width="6" stroke-linecap="round" stroke-linejoin="round" opacity=".65"/>
  <circle cx="205" cy="276" r="42" fill="#062E45"/>
  <circle cx="205" cy="276" r="17" fill="#F59B12"/>
  <circle cx="555" cy="276" r="42" fill="#062E45"/>
  <circle cx="555" cy="276" r="17" fill="#F59B12"/>
  <path d="M88 270 H672" stroke="#062E45" stroke-width="8" stroke-linecap="round" opacity=".92"/>
</g>
</svg>