<svg xmlns="http://www.w3.org/2000/svg" viewBox="0 0 760 360" role="img" aria-labelledby="title desc">
<title id="title">PRAVAC SUV body icon</title>
<desc id="desc">Vector car body icon for SUV category.</desc>

<defs>
  <linearGradient id="bg" x1="0" y1="0" x2="1" y2="1">
    <stop offset="0" stop-color="#F6F8F9"/>
    <stop offset="0.52" stop-color="#EEF3F5"/>
    <stop offset="1" stop-color="#FFF1D5"/>
  </linearGradient>
  <linearGradient id="orangeGrad" x1="0" y1="0" x2="1" y2="0">
    <stop offset="0" stop-color="#F8A51B"/>
    <stop offset="1" stop-color="#F28B00"/>
  </linearGradient>
  <linearGradient id="blueGrad" x1="0" y1="0" x2="1" y2="0">
    <stop offset="0" stop-color="#08324C"/>
    <stop offset="1" stop-color="#061F31"/>
  </linearGradient>
  <filter id="softShadow" x="-20%" y="-20%" width="140%" height="140%">
    <feDropShadow dx="0" dy="10" stdDeviation="14" flood-color="#062E45" flood-opacity="0.13"/>
  </filter>
</defs>

<rect width="760" height="360" fill="transparent"/>
<g filter="url(#softShadow)">
  <path d="M68 272 L90 205 C105 162 154 138 226 136 L451 136 C511 136 561 176 590 232 L683 255 L690 272" fill="none" stroke="url(#blueGrad)" stroke-width="18" stroke-linecap="round" stroke-linejoin="round"/>
  <path d="M86 226 C147 175 203 145 278 142 L450 142 C512 147 555 181 585 232" fill="none" stroke="url(#orangeGrad)" stroke-width="10" stroke-linecap="round" stroke-linejoin="round"/>
  <path d="M191 176 L265 145 L449 145 L513 203 L159 203 Z M286 145 L300 203 M445 145 L489 203" fill="none" stroke="#062E45" stroke-width="7" stroke-linecap="round" stroke-linejoin="round" opacity=".92"/>
  <path d="M88 272 L88 249 C88 230 104 217 128 217 M586 234 L642 246 M590 272 L595 252" fill="none" stroke="#062E45" stroke-width="6" stroke-linecap="round" stroke-linejoin="round" opacity=".65"/>
  <circle cx="205" cy="276" r="42" fill="#062E45"/>
  <circle cx="205" cy="276" r="17" fill="#F59B12"/>
  <circle cx="555" cy="276" r="42" fill="#062E45"/>
  <circle cx="555" cy="276" r="17" fill="#F59B12"/>
  <path d="M88 270 H672" stroke="#062E45" stroke-width="8" stroke-linecap="round" opacity=".92"/>
</g>
</svg>